<svg width="328" height="15" viewBox="0 0 328 15" fill="none" xmlns="http://www.w3.org/2000/svg">
<path d="M0 10L120 10" stroke="#A39797" stroke-width="0.6"/>
<path d="M208 10H328" stroke="#A39797" stroke-width="0.6"/>
<path d="M132.776 12.12C132.184 12.12 131.632 12.012 131.12 11.796C130.608 11.572 130.16 11.264 129.776 10.872C129.392 10.472 129.092 10.012 128.876 9.492C128.668 8.972 128.564 8.416 128.564 7.824C128.564 7.224 128.668 6.668 128.876 6.156C129.092 5.636 129.388 5.18 129.764 4.788C130.148 4.396 130.592 4.092 131.096 3.876C131.608 3.66 132.16 3.552 132.752 3.552C133.344 3.552 133.892 3.66 134.396 3.876C134.908 4.092 135.356 4.396 135.74 4.788C136.124 5.18 136.424 5.636 136.64 6.156C136.856 6.676 136.964 7.236 136.964 7.836C136.964 8.428 136.856 8.984 136.64 9.504C136.424 10.024 136.124 10.48 135.74 10.872C135.364 11.264 134.92 11.572 134.408 11.796C133.904 12.012 133.36 12.12 132.776 12.12ZM132.752 11.04C133.352 11.04 133.876 10.904 134.324 10.632C134.78 10.352 135.14 9.972 135.404 9.492C135.668 9.004 135.8 8.448 135.8 7.824C135.8 7.36 135.724 6.936 135.572 6.552C135.42 6.16 135.208 5.82 134.936 5.532C134.664 5.244 134.344 5.024 133.976 4.872C133.608 4.712 133.2 4.632 132.752 4.632C132.16 4.632 131.636 4.768 131.18 5.04C130.732 5.312 130.376 5.688 130.112 6.168C129.856 6.648 129.728 7.2 129.728 7.824C129.728 8.288 129.8 8.72 129.944 9.12C130.096 9.512 130.304 9.852 130.568 10.14C130.84 10.42 131.16 10.64 131.528 10.8C131.904 10.96 132.312 11.04 132.752 11.04ZM138.319 12V6.3H139.399V12H138.319ZM139.399 8.748L138.991 8.568C138.991 7.84 139.159 7.26 139.495 6.828C139.831 6.396 140.315 6.18 140.947 6.18C141.235 6.18 141.495 6.232 141.727 6.336C141.959 6.432 142.175 6.596 142.375 6.828L141.667 7.56C141.547 7.432 141.415 7.34 141.271 7.284C141.127 7.228 140.959 7.2 140.767 7.2C140.367 7.2 140.039 7.328 139.783 7.584C139.527 7.84 139.399 8.228 139.399 8.748ZM148.351 12.12C147.695 12.12 147.135 12 146.671 11.76C146.207 11.52 145.795 11.172 145.435 10.716L146.203 9.948C146.467 10.316 146.771 10.596 147.115 10.788C147.459 10.972 147.883 11.064 148.387 11.064C148.883 11.064 149.279 10.956 149.575 10.74C149.879 10.524 150.031 10.228 150.031 9.852C150.031 9.54 149.959 9.288 149.815 9.096C149.671 8.904 149.475 8.748 149.227 8.628C148.987 8.5 148.723 8.388 148.435 8.292C148.147 8.188 147.859 8.08 147.571 7.968C147.283 7.848 147.019 7.704 146.779 7.536C146.539 7.36 146.343 7.132 146.191 6.852C146.047 6.572 145.975 6.22 145.975 5.796C145.975 5.324 146.087 4.924 146.311 4.596C146.543 4.26 146.855 4.004 147.247 3.828C147.647 3.644 148.095 3.552 148.591 3.552C149.135 3.552 149.623 3.66 150.055 3.876C150.487 4.084 150.839 4.36 151.111 4.704L150.343 5.472C150.095 5.184 149.827 4.968 149.539 4.824C149.259 4.68 148.935 4.608 148.567 4.608C148.119 4.608 147.763 4.708 147.499 4.908C147.235 5.1 147.103 5.372 147.103 5.724C147.103 6.004 147.175 6.232 147.319 6.408C147.471 6.576 147.667 6.72 147.907 6.84C148.147 6.96 148.411 7.072 148.699 7.176C148.995 7.272 149.287 7.38 149.575 7.5C149.863 7.62 150.127 7.772 150.367 7.956C150.607 8.14 150.799 8.38 150.943 8.676C151.095 8.964 151.171 9.328 151.171 9.768C151.171 10.504 150.915 11.08 150.403 11.496C149.899 11.912 149.215 12.12 148.351 12.12ZM152.511 12V6.3H153.591V12H152.511ZM153.051 5.16C152.851 5.16 152.687 5.096 152.559 4.968C152.431 4.832 152.367 4.664 152.367 4.464C152.367 4.272 152.431 4.112 152.559 3.984C152.687 3.848 152.851 3.78 153.051 3.78C153.251 3.78 153.415 3.848 153.543 3.984C153.671 4.112 153.735 4.272 153.735 4.464C153.735 4.664 153.671 4.832 153.543 4.968C153.415 5.096 153.251 5.16 153.051 5.16ZM157.547 14.508C156.963 14.508 156.443 14.4 155.987 14.184C155.539 13.968 155.179 13.664 154.907 13.272L155.603 12.564C155.835 12.86 156.111 13.084 156.431 13.236C156.751 13.396 157.131 13.476 157.571 13.476C158.155 13.476 158.615 13.32 158.951 13.008C159.295 12.704 159.467 12.292 159.467 11.772V10.356L159.659 9.072L159.467 7.8V6.3H160.547V11.772C160.547 12.316 160.419 12.792 160.163 13.2C159.915 13.608 159.563 13.928 159.107 14.16C158.659 14.392 158.139 14.508 157.547 14.508ZM157.547 11.904C157.027 11.904 156.559 11.78 156.143 11.532C155.735 11.284 155.411 10.944 155.171 10.512C154.931 10.072 154.811 9.58 154.811 9.036C154.811 8.492 154.931 8.008 155.171 7.584C155.411 7.152 155.735 6.812 156.143 6.564C156.559 6.308 157.027 6.18 157.547 6.18C157.995 6.18 158.391 6.268 158.735 6.444C159.079 6.62 159.351 6.868 159.551 7.188C159.759 7.5 159.871 7.868 159.887 8.292V9.804C159.863 10.22 159.747 10.588 159.539 10.908C159.339 11.22 159.067 11.464 158.723 11.64C158.379 11.816 157.987 11.904 157.547 11.904ZM157.763 10.884C158.115 10.884 158.423 10.808 158.687 10.656C158.959 10.504 159.167 10.292 159.311 10.02C159.455 9.74 159.527 9.416 159.527 9.048C159.527 8.68 159.451 8.36 159.299 8.088C159.155 7.808 158.951 7.592 158.687 7.44C158.423 7.28 158.111 7.2 157.751 7.2C157.391 7.2 157.075 7.28 156.803 7.44C156.531 7.592 156.315 7.808 156.155 8.088C156.003 8.36 155.927 8.676 155.927 9.036C155.927 9.396 156.003 9.716 156.155 9.996C156.315 10.276 156.531 10.496 156.803 10.656C157.083 10.808 157.403 10.884 157.763 10.884ZM166.164 12V8.676C166.164 8.244 166.028 7.888 165.756 7.608C165.484 7.328 165.132 7.188 164.7 7.188C164.412 7.188 164.156 7.252 163.932 7.38C163.708 7.508 163.532 7.684 163.404 7.908C163.276 8.132 163.212 8.388 163.212 8.676L162.768 8.424C162.768 7.992 162.864 7.608 163.056 7.272C163.248 6.936 163.516 6.672 163.86 6.48C164.204 6.28 164.592 6.18 165.024 6.18C165.456 6.18 165.836 6.288 166.164 6.504C166.5 6.72 166.764 7.004 166.956 7.356C167.148 7.7 167.244 8.068 167.244 8.46V12H166.164ZM162.132 12V6.3H163.212V12H162.132ZM171.394 12V3.672H172.522V12H171.394ZM178.328 12V8.676C178.328 8.244 178.192 7.888 177.92 7.608C177.648 7.328 177.296 7.188 176.864 7.188C176.576 7.188 176.32 7.252 176.096 7.38C175.872 7.508 175.696 7.684 175.568 7.908C175.44 8.132 175.376 8.388 175.376 8.676L174.932 8.424C174.932 7.992 175.028 7.608 175.22 7.272C175.412 6.936 175.68 6.672 176.024 6.48C176.368 6.28 176.756 6.18 177.188 6.18C177.62 6.18 178 6.288 178.328 6.504C178.664 6.72 178.928 7.004 179.12 7.356C179.312 7.7 179.408 8.068 179.408 8.46V12H178.328ZM174.296 12V6.3H175.376V12H174.296ZM184.998 12L182.742 6.3H183.87L185.502 10.74H185.142L186.762 6.3H187.386L189.006 10.74H188.646L190.278 6.3H191.406L189.162 12H188.526L186.882 7.692H187.278L185.622 12H184.998ZM192.284 12V6.3H193.364V12H192.284ZM192.824 5.16C192.624 5.16 192.46 5.096 192.332 4.968C192.204 4.832 192.14 4.664 192.14 4.464C192.14 4.272 192.204 4.112 192.332 3.984C192.46 3.848 192.624 3.78 192.824 3.78C193.024 3.78 193.188 3.848 193.316 3.984C193.444 4.112 193.508 4.272 193.508 4.464C193.508 4.664 193.444 4.832 193.316 4.968C193.188 5.096 193.024 5.16 192.824 5.16ZM195.832 12V3.912H196.912V12H195.832ZM194.428 7.284V6.3H198.316V7.284H194.428ZM203.406 12V8.676C203.406 8.244 203.27 7.888 202.998 7.608C202.726 7.328 202.374 7.188 201.942 7.188C201.654 7.188 201.398 7.252 201.174 7.38C200.95 7.508 200.774 7.684 200.646 7.908C200.518 8.132 200.454 8.388 200.454 8.676L200.01 8.424C200.01 7.992 200.106 7.608 200.298 7.272C200.49 6.936 200.758 6.672 201.102 6.48C201.446 6.28 201.834 6.18 202.266 6.18C202.698 6.18 203.078 6.276 203.406 6.468C203.742 6.66 204.006 6.928 204.198 7.272C204.39 7.616 204.486 8.012 204.486 8.46V12H203.406ZM199.374 12V3.432H200.454V12H199.374Z" fill="#757171"/>
</svg>
