<svg width="60" height="43" viewBox="0 0 60 43" fill="none" xmlns="http://www.w3.org/2000/svg">
<rect y="0.0714417" width="60" height="42.8571" rx="4" fill="white"/>
<path fill-rule="evenodd" clip-rule="evenodd" d="M9.67439 16.4835C10.2434 16.3908 10.8272 16.4015 11.3989 16.4586C11.929 16.5681 12.4638 16.6904 12.9502 16.9356C13.9344 17.4052 14.7721 18.1664 15.3304 19.1035C15.7933 19.9695 16.1117 20.941 16.064 21.9332C16.0775 23.9702 14.7869 25.911 12.9589 26.777C11.7738 27.3407 10.3952 27.4179 9.12888 27.1089C8.27231 26.8455 7.44598 26.4196 6.82187 25.7653C6.22731 25.2137 5.77854 24.511 5.49369 23.7545C5.12218 22.8241 5.08858 21.7895 5.24646 20.8093C5.53534 19.3535 6.4349 18.0186 7.70799 17.2446C8.30053 16.8543 8.98175 16.6225 9.67439 16.4835ZM8.9139 19.0975C8.48528 19.1412 8.01702 19.2917 7.77987 19.6786C7.51788 20.0493 7.49054 20.5129 7.46457 20.9533L7.45807 21.0612C7.45273 21.1723 7.44281 21.2833 7.43289 21.3942C7.41288 21.6181 7.39286 21.8421 7.41038 22.0676C7.42343 22.2199 7.43265 22.3726 7.44187 22.5254C7.4649 22.9072 7.48793 23.2891 7.57094 23.6638C7.67373 24.1361 8.09899 24.5022 8.56791 24.5882C9.44186 24.7458 10.3322 24.732 11.2171 24.7182L11.4601 24.7145C11.8222 24.6944 12.1843 24.6574 12.5424 24.6003C13.0785 24.5305 13.5521 24.0938 13.6401 23.5563C13.794 22.8973 13.8215 22.2174 13.7758 21.5449C13.6898 21.1136 13.3848 20.7246 12.9703 20.5668C12.7836 20.4765 12.5764 20.4771 12.3732 20.4776C12.3374 20.4777 12.3017 20.4778 12.2663 20.4774C11.8666 20.4779 11.4669 20.4777 11.0673 20.4775H11.0673C10.3679 20.4771 9.66865 20.4767 8.96966 20.4801C8.8893 20.4816 8.8143 20.4541 8.73998 20.4269C8.71239 20.4168 8.6849 20.4067 8.65726 20.3981C8.65525 20.2476 8.66062 20.0226 8.86284 20.0186C9.38938 20.0067 9.91642 20.0102 10.4434 20.0137C11.1375 20.0183 11.8315 20.0229 12.5242 19.9924C12.449 19.643 12.236 19.2782 11.8692 19.1815C11.538 19.0928 11.1954 19.0478 10.8548 19.0162C10.7576 19.015 10.6603 19.0131 10.5629 19.0113H10.5629C10.0112 19.0007 9.45695 18.9901 8.9139 19.0975ZM12.6653 22.032C12.4886 21.9843 12.277 22.0542 12.2152 22.2362C12.1764 22.4458 12.2386 22.6477 12.3003 22.8483C12.3262 22.9326 12.3521 23.0166 12.3704 23.1008C12.3905 23.1126 12.4208 23.1301 12.451 23.1475C12.4812 23.165 12.5115 23.1825 12.5316 23.1942C12.6008 23.1539 12.6714 23.1176 12.7446 23.0861C12.7525 22.9088 12.7952 22.7382 12.8379 22.5678C12.8569 22.4922 12.8758 22.4165 12.8917 22.3403C12.8588 22.2147 12.7762 22.0998 12.6653 22.032Z" fill="#01ACD7"/>
<path fill-rule="evenodd" clip-rule="evenodd" d="M22.9662 18.1576C22.4482 17.9547 21.8731 17.9776 21.3303 18.0448C20.156 18.2261 19.1254 19.1223 18.7774 20.2584C18.6195 20.7085 18.6229 21.1942 18.6645 21.6638C18.8049 22.865 19.7085 23.9198 20.8553 24.2873C21.6682 24.5331 22.6061 24.5412 23.3565 24.1012C23.4545 24.0469 23.5435 23.98 23.6325 23.913C23.7156 23.8504 23.7988 23.7879 23.8892 23.7357L23.8906 23.7981C23.9017 24.2933 23.9143 24.8533 23.5385 25.2271C23.2866 25.5348 22.9057 25.6967 22.5207 25.7558C21.6884 25.9083 20.8083 25.6242 20.1895 25.0545C20.052 25.1946 19.9079 25.3284 19.7638 25.4622L19.7638 25.4622C19.5307 25.6788 19.2976 25.8952 19.0925 26.1381C19.7401 26.7508 20.5604 27.1929 21.4499 27.3104C22.3192 27.4199 23.2544 27.3669 24.029 26.9201C24.686 26.5553 25.2033 25.9325 25.4062 25.2063C25.5321 24.8444 25.5304 24.4578 25.5287 24.0796L25.5285 24.0158C25.5278 22.0132 25.5278 20.0112 25.5285 18.0085C25.2137 18.0046 24.8989 18.0047 24.5841 18.0049C24.3567 18.0051 24.1294 18.0052 23.902 18.0038L23.9028 18.1688V18.1688C23.9038 18.3476 23.9048 18.5264 23.9007 18.7051C23.6205 18.4761 23.3108 18.2738 22.9662 18.1576ZM20.903 19.903C21.1724 19.6638 21.5298 19.5725 21.8785 19.5207C22.5725 19.4153 23.3531 19.733 23.7085 20.3544C23.8518 20.6062 23.8459 20.8908 23.84 21.1727C23.8379 21.2714 23.8358 21.3698 23.8402 21.4663C23.8986 22.0588 23.4371 22.5815 22.9084 22.7831C22.2695 23.0236 21.4814 23.0397 20.9238 22.5956C20.0881 21.9688 20.0713 20.5385 20.903 19.903ZM37.2395 18.0051C36.5449 18.0004 35.8207 18.208 35.3202 18.7092C35.3157 18.6452 35.3116 18.5814 35.3074 18.5176L35.3074 18.5175L35.3074 18.5174L35.3074 18.5173L35.3074 18.5172C35.3002 18.4069 35.2931 18.2969 35.2846 18.1872C34.7377 18.1805 34.1908 18.1784 33.644 18.1872C33.6447 19.8452 33.6446 21.5033 33.6445 23.1613C33.6444 24.4048 33.6444 25.6483 33.6447 26.8919C34.0289 26.9166 34.4141 26.9145 34.7992 26.9123H34.7992H34.7993H34.7993H34.7993C34.9784 26.9113 35.1574 26.9103 35.3363 26.912C35.3488 26.1438 35.346 25.3752 35.3432 24.6065C35.3423 24.344 35.3413 24.0815 35.341 23.819C36.5476 24.7777 38.4683 24.6722 39.5533 23.5724C40.7343 22.388 40.8022 20.2772 39.6648 19.0411C39.0662 18.3531 38.1472 17.9729 37.2395 18.0051ZM35.4203 20.4989C35.5969 19.9675 36.1371 19.6504 36.6618 19.5463C37.2026 19.4368 37.8072 19.5731 38.2251 19.9413C38.9332 20.5849 38.9386 21.8217 38.2708 22.4955C37.601 23.1438 36.4159 23.1317 35.7501 22.4834C35.4666 22.2328 35.3181 21.8405 35.343 21.4656C35.3486 21.3668 35.3459 21.2665 35.3433 21.1661V21.1661C35.3373 20.939 35.3313 20.7113 35.4203 20.4989ZM28.7384 18.0877C29.693 17.8956 30.7377 18.0112 31.5687 18.5426C32.2009 18.9242 32.6819 19.5429 32.8969 20.249C33.1918 21.1768 33.0595 22.2382 32.5073 23.0457C31.9584 23.8593 31.0212 24.3578 30.0538 24.4512C29.4579 24.4915 28.8418 24.4713 28.2782 24.2543C27.3444 23.9406 26.561 23.17 26.2856 22.2181C25.99 21.3259 26.127 20.3047 26.6336 19.5147C27.1025 18.7757 27.8885 18.2712 28.7384 18.0877ZM29.1381 19.555C28.9003 19.6228 28.6779 19.7411 28.4831 19.8922C27.8086 20.4236 27.644 21.4744 28.1244 22.1858C28.6732 23.0908 30.0894 23.2695 30.8324 22.5116C31.1959 22.1778 31.3685 21.6793 31.3202 21.1909C31.3612 20.1079 30.1599 19.2352 29.1381 19.555ZM44.733 18.0454C43.7555 17.9171 42.6967 18.0535 41.8858 18.6507C41.4175 19.0229 41.0171 19.5348 40.9379 20.1435C41.1713 20.1835 41.4028 20.234 41.6344 20.2845C41.936 20.3502 42.2376 20.416 42.5435 20.4586C42.6759 19.9272 43.1367 19.5046 43.6775 19.4173C44.0275 19.3568 44.3917 19.3749 44.7323 19.4784C45.0299 19.5751 45.2563 19.901 45.126 20.2114C44.8832 20.4327 44.5529 20.4996 44.2383 20.5634L44.2382 20.5634C44.1977 20.5716 44.1574 20.5798 44.1176 20.5882L43.9538 20.6115C43.1552 20.7243 42.3249 20.8416 41.6453 21.3031C40.8049 21.8909 40.8015 23.2742 41.5788 23.9164C42.2204 24.468 43.124 24.5311 43.9288 24.4243C44.4857 24.3202 45.0467 24.079 45.4021 23.6201C45.4041 23.7333 45.4041 23.8465 45.4041 23.9598C45.4041 24.0731 45.4041 24.1865 45.4061 24.3C45.5287 24.2999 45.6514 24.2995 45.7741 24.2991H45.7741H45.7742C46.163 24.2978 46.5523 24.2966 46.9419 24.3027C46.9434 23.5445 46.9432 22.7866 46.943 22.0288V22.0263V22.0263V22.0263C46.9428 21.4573 46.9426 20.8884 46.9432 20.3195C46.9493 19.858 46.7806 19.4085 46.5267 19.0283C46.1142 18.4492 45.4142 18.1569 44.733 18.0454ZM42.6181 22.6433C42.5294 22.433 42.7007 22.2255 42.872 22.122C43.2175 21.9316 43.6064 21.8605 43.9946 21.7896C44.4623 21.7042 44.929 21.6189 45.3174 21.3252C45.3137 21.4175 45.3167 21.5141 45.3197 21.612C45.3298 21.9426 45.3403 22.2884 45.0977 22.5352C44.6288 23.0027 43.9147 23.0887 43.2838 23.0484C43.0218 23.033 42.6772 22.9423 42.6181 22.6433ZM47.6181 18.1825C47.4375 18.1828 47.2569 18.1831 47.0762 18.1831C47.5528 19.1789 48.04 20.1697 48.5271 21.1606C48.9842 22.0903 49.4413 23.02 49.8898 23.954C49.6694 24.4387 49.4297 24.9145 49.19 25.3902C48.9367 25.8931 48.6834 26.396 48.4528 26.9093C48.6469 26.9085 48.8411 26.91 49.0353 26.9115C49.4671 26.9148 49.8991 26.9182 50.3305 26.8959C51.746 23.995 53.1602 21.0941 54.573 18.1919C53.9382 18.1758 53.304 18.1784 52.6698 18.1892C52.0611 19.5254 51.4451 20.859 50.8256 22.1898C50.643 21.7955 50.4585 21.4021 50.2739 21.0086C49.9724 20.3658 49.6709 19.723 49.3779 19.0767C49.331 18.9714 49.2793 18.8683 49.2276 18.7652C49.1328 18.576 49.038 18.3869 48.9728 18.1852C48.5212 18.1808 48.0697 18.1817 47.6181 18.1825Z" fill="#010101"/>
</svg>
