<svg width="60" height="43" viewBox="0 0 60 43" fill="none" xmlns="http://www.w3.org/2000/svg">
<rect y="0.0714417" width="60" height="42.8571" rx="4" fill="#0060AF"/>
<path fill-rule="evenodd" clip-rule="evenodd" d="M12.3401 25.6068C12.3401 25.0316 12.3467 23.4942 12.3317 23.3048C12.3448 21.017 10.5803 19.4033 9.46554 19.5291C8.69418 19.5922 8.04758 19.8887 7.70061 20.7416C7.37876 21.5365 7.66652 22.5939 8.73613 22.842C9.87972 23.1084 10.5477 23.3301 11.031 23.6429C11.6233 24.0258 12.1067 24.7573 12.1196 25.6077" fill="white"/>
<path fill-rule="evenodd" clip-rule="evenodd" d="M11.8624 25.6076C11.8662 24.8704 11.4296 24.2184 10.8591 23.8681C10.353 23.5584 9.67353 23.3551 8.57742 23.0929C8.23859 23.0112 7.88417 22.8297 7.77445 22.5984C7.4842 22.8741 7.43148 23.4939 7.48255 23.8562C7.54189 24.2753 8.06152 24.9661 8.84392 24.9932C9.32173 25.0113 9.92582 24.8963 10.2155 24.8382C10.7153 24.7365 11.5059 25.0316 11.6318 25.6067" fill="white"/>
<path fill-rule="evenodd" clip-rule="evenodd" d="M12.7444 15.9636C11.4177 15.9636 10.2719 16.7883 10.2759 18.2154C10.28 19.4155 11.3038 20.0579 11.6693 20.5168C12.2213 21.2083 12.5201 22.0267 12.5511 23.2791C12.5753 24.2758 12.5741 25.26 12.5795 25.6088H12.8722C12.8673 25.2439 12.854 24.1991 12.869 23.2483C12.8889 21.9955 13.1985 21.2083 13.7508 20.5168C14.1195 20.0579 15.1423 19.4155 15.1445 18.2154C15.1496 16.7883 14.0042 15.9636 12.6789 15.9636" fill="white"/>
<path fill-rule="evenodd" clip-rule="evenodd" d="M13.0812 25.6068C13.0812 25.0316 13.0743 23.4942 13.0891 23.3048C13.0761 21.017 14.8395 19.4033 15.9552 19.5291C16.7266 19.5922 17.3723 19.8887 17.7204 20.7416C18.0419 21.5365 17.7526 22.5939 16.6843 22.842C15.5399 23.1084 14.8729 23.3301 14.3883 23.6429C13.7968 24.0258 13.3472 24.7573 13.3334 25.6077" fill="white"/>
<path fill-rule="evenodd" clip-rule="evenodd" d="M13.5586 25.6076C13.5545 24.8704 13.9909 24.2184 14.5598 23.8681C15.0681 23.5584 15.7482 23.3551 16.8434 23.0929C17.1829 23.0112 17.5369 22.8297 17.6447 22.5984C17.9363 22.8741 17.989 23.4939 17.9378 23.8562C17.8774 24.2753 17.359 24.9661 16.578 24.9932C16.1004 25.0113 15.493 24.8963 15.2046 24.8382C14.7068 24.7365 13.9139 25.0316 13.7875 25.6067" fill="white"/>
<path fill-rule="evenodd" clip-rule="evenodd" d="M13.968 27.9879L13.7983 26.8202L14.2081 26.7617C14.3078 26.7489 14.4292 26.7653 14.4778 26.8241C14.5315 26.8856 14.5479 26.9365 14.5582 27.0172C14.5738 27.1171 14.5432 27.2324 14.424 27.2899V27.2934C14.557 27.2934 14.6375 27.3835 14.6609 27.5358C14.6642 27.568 14.6745 27.6456 14.6642 27.7104C14.6372 27.8645 14.5398 27.9142 14.375 27.936L13.968 27.9879ZM14.2317 27.7789C14.2803 27.7723 14.3296 27.7698 14.3681 27.7467C14.4271 27.7104 14.4218 27.6328 14.4135 27.5751C14.393 27.4485 14.358 27.4002 14.2154 27.4201L14.1257 27.4331L14.1826 27.7853L14.2317 27.7789ZM14.146 27.2393C14.2002 27.2311 14.2737 27.2248 14.3043 27.1763C14.3204 27.1439 14.3409 27.1181 14.3273 27.0461C14.3106 26.9607 14.2807 26.9076 14.1655 26.9282L14.0582 26.9444L14.1006 27.2437L14.146 27.2393Z" fill="white"/>
<path fill-rule="evenodd" clip-rule="evenodd" d="M15.7431 27.2857C15.7463 27.3074 15.75 27.3316 15.7514 27.3533C15.7845 27.5662 15.7431 27.7426 15.4892 27.7911C15.1136 27.8592 15.0417 27.6394 14.9758 27.3316L14.9406 27.1649C14.8888 26.8705 14.8666 26.6475 15.2326 26.5787C15.4389 26.5433 15.5753 26.6207 15.632 26.8143C15.6408 26.8432 15.6519 26.8717 15.656 26.9008L15.4315 26.9445C15.4055 26.8717 15.3712 26.7417 15.2701 26.7526C15.0888 26.7733 15.1487 26.9859 15.1673 27.0749L15.2348 27.3946C15.2551 27.4912 15.2954 27.6457 15.4523 27.6159C15.5797 27.5918 15.5241 27.4047 15.5128 27.3279" fill="white"/>
<path fill-rule="evenodd" clip-rule="evenodd" d="M16.1034 27.639L16.0259 26.4306L16.3274 26.3438L16.96 27.3948L16.7224 27.4618L16.5726 27.1947L16.3088 27.2694L16.3429 27.573L16.1034 27.639ZM16.2867 27.0742L16.4773 27.0222L16.2242 26.5332L16.2867 27.0742Z" fill="white"/>
<path fill-rule="evenodd" clip-rule="evenodd" d="M8.65183 26.7253C8.74624 26.4405 8.8307 26.2307 9.19106 26.3238C9.38386 26.3747 9.50338 26.4547 9.49772 26.6659C9.49676 26.7128 9.48033 26.7609 9.46957 26.8072L9.2453 26.7489C9.27469 26.6322 9.29333 26.5397 9.14096 26.4954C8.96485 26.4499 8.92193 26.6513 8.89764 26.7382L8.80641 27.0549C8.77743 27.1489 8.74265 27.3044 8.89764 27.3446C9.02572 27.377 9.10328 27.2586 9.14965 27.0856L8.99287 27.0463L9.04711 26.8631L9.41602 26.9749L9.24088 27.5854L9.07112 27.542L9.10935 27.4129H9.10452C9.02627 27.5186 8.93104 27.5296 8.84754 27.5144C8.47863 27.4205 8.51713 27.1932 8.60518 26.8895" fill="white"/>
<path fill-rule="evenodd" clip-rule="evenodd" d="M10.0248 27.241L9.91366 27.7378L9.66357 27.6869L9.93008 26.527L10.3564 26.6177C10.6059 26.6686 10.6813 26.7732 10.646 26.9889C10.6258 27.1126 10.5611 27.2459 10.4031 27.2351L10.4014 27.2331C10.535 27.2771 10.5463 27.3407 10.523 27.4504C10.5129 27.4972 10.4435 27.7806 10.4914 27.8264L10.493 27.8612L10.2343 27.7975C10.2235 27.719 10.2602 27.5777 10.2747 27.4994C10.2892 27.4302 10.3125 27.3326 10.238 27.2961C10.1797 27.2667 10.1579 27.2681 10.092 27.2539L10.0248 27.241ZM10.0674 27.0614L10.2358 27.1042C10.3381 27.1182 10.3949 27.0683 10.4151 26.9517C10.4333 26.8449 10.4097 26.8032 10.3179 26.7826L10.1374 26.748L10.0674 27.0614Z" fill="white"/>
<path fill-rule="evenodd" clip-rule="evenodd" d="M11.629 26.7861L11.8763 26.8131L11.7697 27.6286C11.718 27.8871 11.612 28 11.3103 27.9648C11.0033 27.9281 10.9305 27.7964 10.949 27.5358L11.0563 26.7211L11.3056 26.7479L11.1986 27.5444C11.1872 27.6309 11.1661 27.7591 11.3292 27.7747C11.474 27.7851 11.5068 27.6946 11.5232 27.5821" fill="white"/>
<path fill-rule="evenodd" clip-rule="evenodd" d="M12.1489 28.0093L12.2235 26.8434L12.6985 26.8627C12.9232 26.8733 12.9818 27.0461 12.9749 27.211C12.9683 27.3113 12.9352 27.4233 12.8424 27.4841C12.7664 27.5358 12.6686 27.548 12.578 27.5438L12.4232 27.5358L12.3922 28.0244L12.1489 28.0093ZM12.4301 27.3579L12.5559 27.3645C12.6582 27.3681 12.726 27.3299 12.7348 27.1884C12.7399 27.0526 12.6853 27.0294 12.5528 27.0239L12.4531 27.0207L12.4301 27.3579Z" fill="white"/>
<path fill-rule="evenodd" clip-rule="evenodd" d="M45.6631 17.0905L43.7745 20.322C43.0616 19.7762 42.1913 19.3747 41.0807 19.3747C38.4525 19.3747 37.3848 21.2214 37.3848 22.5223C37.3848 23.488 38.0556 24.9126 40.3941 24.9126C41.3758 24.9126 42.7711 24.269 43.1727 23.976L41.305 27.725C40.4147 27.8925 40.1221 27.9963 39.3685 28.0183C35.1828 28.136 33.4916 25.7121 33.4927 23.2355C33.4956 19.9612 36.5835 15.9793 41.7029 15.9793C42.0165 15.9793 42.4001 16.0817 42.7282 16.195L43.0598 15.7952" fill="white"/>
<path fill-rule="evenodd" clip-rule="evenodd" d="M53.4556 15.8966L53.9904 27.6411H50.0104L50.0082 25.627H47.2941L46.401 27.6411H42.0845L46.5973 19.2546L45.5797 19.2483L47.513 15.8966H53.4556ZM49.9822 19.4895L48.4479 22.9056H50.0286L49.9822 19.4895Z" fill="white"/>
<path fill-rule="evenodd" clip-rule="evenodd" d="M30.98 15.8966C32.9509 15.907 34.0647 16.9156 34.0647 18.3723C34.0647 19.7155 32.8901 20.9043 31.6006 21.519C32.9282 21.9792 33.043 23.1084 33.043 23.9073C33.043 25.8376 30.9885 27.6411 28.3178 27.6411H22.4932L24.7652 19.3714L23.8319 19.3663L25.7397 15.8966C25.7397 15.8966 29.3772 15.8862 30.98 15.8966ZM29.0462 20.6584C29.4539 20.6584 30.1738 20.561 30.3538 19.8172C30.551 19.0097 29.8754 18.988 29.5514 18.988L28.3934 18.9833L27.9896 20.6584H29.0462ZM27.4091 22.7337L26.876 24.6639H28.2395C28.7759 24.6639 29.5069 24.4128 29.6861 23.7847C29.863 23.1549 29.3519 22.7337 28.8175 22.7337H27.4091Z" fill="white"/>
<path fill-rule="evenodd" clip-rule="evenodd" d="M12.7969 29.0842C10.7801 29.0842 8.70763 28.616 6.63783 27.6899L6.58704 27.6664L6.56275 27.6176C5.63391 25.7693 5.14258 23.7479 5.14258 21.7701C5.14258 19.7952 5.61376 17.8602 6.54315 16.0144L6.56882 15.9654L6.62058 15.9409C8.53525 15.0859 10.5948 14.6529 12.7444 14.6529C14.7466 14.6529 16.8851 15.1349 18.9275 16.0495L18.9798 16.0715L19.0041 16.1215C19.9506 18.0038 20.4498 20.0248 20.4498 21.97C20.4498 23.9073 19.9704 25.8441 19.0227 27.7253L18.9979 27.7746L18.9451 27.7975C17.0596 28.6389 14.9335 29.0842 12.7969 29.0842ZM6.82939 27.4365C8.83999 28.3282 10.8455 28.7783 12.7969 28.7783C14.866 28.7783 16.9236 28.352 18.7555 27.5438C19.6654 25.7209 20.1267 23.8449 20.1267 21.97C20.1267 20.0873 19.6453 18.1291 18.7347 16.3021C16.7526 15.4237 14.6827 14.958 12.7444 14.958C10.6634 14.958 8.66871 15.374 6.812 16.195C5.9207 17.9839 5.46705 19.8585 5.46705 21.7701C5.46705 23.6851 5.93837 25.6442 6.82939 27.4365Z" fill="white"/>
</svg>
