<svg width="18" height="16" viewBox="0 0 18 16" fill="none" xmlns="http://www.w3.org/2000/svg">
<path d="M16.4226 7.22667C16.2929 7.23556 16.1719 7.28 16.0855 7.37778L15.2211 8.26667L16.993 10.0444L17.8574 9.15556C18.0475 8.96889 18.0475 8.65778 17.8574 8.47111L16.7856 7.37778C16.6991 7.28587 16.5814 7.23176 16.4571 7.22667M14.7285 8.78222L9.5078 14.1689V16H11.2884L16.5263 10.6044M15.5582 0H1.72869C1.27021 0 0.830514 0.187301 0.506322 0.520699C0.182129 0.854097 0 1.30628 0 1.77778V12.4444C0 12.9159 0.182129 13.3681 0.506322 13.7015C0.830514 14.0349 1.27021 14.2222 1.72869 14.2222H7.77911V13.4311L14.9013 6.12444C15.3076 5.68889 15.8694 5.44889 16.4571 5.44889C16.751 5.44889 17.0449 5.50222 17.3215 5.61778V1.77778C17.3215 0.782222 16.5263 0 15.5582 0ZM15.5582 3.55556L8.64346 8L1.72869 3.55556V1.77778L8.64346 6.22222L15.5582 1.77778" fill="#988787"/>
</svg>
