<svg width="16" height="13" viewBox="0 0 16 13" fill="none" xmlns="http://www.w3.org/2000/svg">
<path d="M13.8254 6.355C13.8254 5.42514 13.508 4.51384 12.9091 3.72425C12.3102 2.93465 11.4537 2.2983 10.4365 1.88721C9.4194 1.47611 8.28224 1.3067 7.15375 1.39814C6.02527 1.48958 4.95053 1.83822 4.05119 2.4046H4.60919C4.83139 2.4046 5.0445 2.47698 5.20163 2.60583C5.35875 2.73467 5.44702 2.90942 5.44702 3.09163C5.44702 3.27384 5.35875 3.44858 5.20163 3.57743C5.0445 3.70627 4.83139 3.77865 4.60919 3.77865H2.09567C1.87347 3.77865 1.66036 3.70627 1.50323 3.57743C1.34611 3.44858 1.25784 3.27384 1.25784 3.09163V2.91987H1.22935L1.25784 2.88414V1.03055C1.25784 0.848336 1.34611 0.673589 1.50323 0.544746C1.66036 0.415904 1.87347 0.343521 2.09567 0.343521C2.31788 0.343521 2.53099 0.415904 2.68811 0.544746C2.84524 0.673589 2.93351 0.848336 2.93351 1.03055V1.37681C4.30255 0.483256 6.0013 -0.00222594 7.75108 7.67303e-06C9.32427 0.000186332 10.8602 0.392959 12.1546 1.12612C13.449 1.85928 14.4407 2.89811 14.9978 4.10454C15.5549 5.31097 15.6511 6.62785 15.2735 7.88017C14.8959 9.13249 14.0625 10.2609 12.884 11.1155C11.7056 11.9701 10.2378 12.5104 8.67589 12.6645C7.11396 12.8186 5.53181 12.5793 4.13974 11.9783C2.74766 11.3774 1.61159 10.4433 0.882506 9.30015C0.153425 8.15702 -0.134132 6.85902 0.0580531 5.57866C0.110837 5.2269 0.490377 4.98095 0.922701 4.98095C1.41703 4.98095 1.77478 5.37187 1.71781 5.77515C1.62178 6.44899 1.69464 7.1318 1.93191 7.78173C2.16917 8.43165 2.56585 9.03498 3.09762 9.5547C3.62938 10.0744 4.28501 10.4996 5.02431 10.8041C5.76361 11.1087 6.57098 11.2862 7.39691 11.3257C8.22285 11.3653 9.04993 11.2661 9.82743 11.0342C10.6049 10.8023 11.3165 10.4426 11.9184 9.97714C12.5203 9.51171 13 8.95035 13.3279 8.3275C13.6558 7.70464 13.8251 7.03342 13.8254 6.355ZM8.58891 3.6069C8.58891 3.42469 8.50064 3.24994 8.34352 3.12109C8.18639 2.99225 7.97328 2.91987 7.75108 2.91987C7.52887 2.91987 7.31576 2.99225 7.15864 3.12109C7.00151 3.24994 6.91324 3.42469 6.91324 3.6069V7.04203C6.91324 7.22424 7.00151 7.39899 7.15864 7.52783C7.31576 7.65667 7.52887 7.72905 7.75108 7.72905H10.2646C10.4868 7.72905 10.6999 7.65667 10.857 7.52783C11.0142 7.39899 11.1024 7.22424 11.1024 7.04203C11.1024 6.85982 11.0142 6.68507 10.857 6.55623C10.6999 6.42738 10.4868 6.355 10.2646 6.355H8.58891V3.6069Z" fill="#988787"/>
</svg>
