<svg width="16" height="16" viewBox="0 0 16 16" fill="none" xmlns="http://www.w3.org/2000/svg">
<path fill-rule="evenodd" clip-rule="evenodd" d="M13.4207 2.10669C13.0456 1.73175 12.537 1.52112 12.0067 1.52112C11.4764 1.52112 10.9677 1.73175 10.5927 2.10669L10.1214 2.57869L13.4214 5.87869L13.892 5.40736C14.0778 5.22164 14.2251 5.00114 14.3256 4.75847C14.4262 4.5158 14.4779 4.2557 14.4779 3.99302C14.4779 3.73035 14.4262 3.47025 14.3256 3.22758C14.2251 2.98491 14.0778 2.76441 13.892 2.57869L13.4207 2.10669ZM12.478 6.82136L9.17802 3.52136L3.11802 9.58202C2.98541 9.71466 2.89277 9.88192 2.85068 10.0647L2.16468 13.0347C2.13912 13.1449 2.14206 13.2599 2.1732 13.3687C2.20435 13.4775 2.26269 13.5766 2.34272 13.6567C2.42276 13.7367 2.52185 13.795 2.63066 13.8262C2.73947 13.8573 2.85442 13.8603 2.96468 13.8347L5.93535 13.1494C6.11789 13.1072 6.2849 13.0145 6.41735 12.882L12.478 6.82136Z" fill="#988787"/>
</svg>
