<svg width="16" height="13" viewBox="0 0 16 13" fill="none" xmlns="http://www.w3.org/2000/svg">
<path fill-rule="evenodd" clip-rule="evenodd" d="M2.8831 3.99093V4.76133C2.71949 4.77079 2.56596 4.78262 2.42037 4.79917C1.77167 4.87012 1.22532 5.02385 0.791412 5.37919C0.357505 5.73512 0.171545 6.18329 0.0843308 6.71541C-1.07404e-08 7.22802 0 7.88017 0 8.68841V8.75345C0 9.56169 -1.07404e-08 10.2138 0.0843308 10.7264C0.170824 11.2586 0.358226 11.7067 0.791412 12.0627C1.22532 12.4186 1.77167 12.5711 2.42037 12.6433C3.04528 12.7119 3.8403 12.7119 4.8256 12.7119H10.6711C11.6564 12.7119 12.4514 12.7119 13.0763 12.6433C13.725 12.5711 14.2714 12.4186 14.7053 12.0627C15.1392 11.7067 15.3251 11.2586 15.4131 10.7264C15.4967 10.2138 15.4967 9.56169 15.4967 8.75345V8.68841C15.4967 7.88017 15.4967 7.22802 15.4131 6.71541C15.3251 6.18329 15.1392 5.73512 14.7053 5.37919C14.2714 5.02326 13.725 4.87071 13.0763 4.79917C12.9226 4.78256 12.7683 4.76995 12.6136 4.76133V3.99093C12.6136 2.93247 12.101 1.91736 11.1886 1.16892C10.2762 0.420472 9.03869 0 7.74834 0C6.458 0 5.22051 0.420472 4.3081 1.16892C3.39569 1.91736 2.8831 2.93247 2.8831 3.99093ZM7.74834 0.886874C6.74475 0.886874 5.78225 1.21391 5.0726 1.79603C4.36295 2.37816 3.96427 3.16769 3.96427 3.99093V4.73177C4.23312 4.73 4.52071 4.73 4.8256 4.73H10.6711C10.976 4.73 11.2636 4.73 11.5324 4.73177V3.99093C11.5324 2.27631 9.8386 0.886874 7.74834 0.886874ZM2.56452 5.67777C2.03547 5.7363 1.75581 5.84332 1.55616 6.0065C1.3565 6.17028 1.22676 6.39968 1.1554 6.83425C1.08261 7.28065 1.08116 7.87249 1.08116 8.72093C1.08116 9.56937 1.08261 10.1612 1.1554 10.6082C1.22676 11.0422 1.35722 11.2716 1.55616 11.4354C1.75581 11.5991 2.03547 11.7056 2.56524 11.7641C3.10871 11.8238 3.83093 11.825 4.86524 11.825H10.6314C11.6658 11.825 12.3873 11.8238 12.9322 11.7641C13.4612 11.7056 13.7409 11.5985 13.9405 11.4354C14.1402 11.2716 14.2699 11.0422 14.3413 10.6076C14.4141 10.1612 14.4155 9.56937 14.4155 8.72093C14.4155 7.87249 14.4141 7.28005 14.3413 6.83366C14.2699 6.39968 14.1395 6.17028 13.9405 6.0065C13.7409 5.84273 13.4612 5.7363 12.9314 5.67777C12.3873 5.61805 11.6658 5.61687 10.6314 5.61687H4.86524C3.83093 5.61687 3.10871 5.61805 2.56452 5.67777Z" fill="#988787"/>
</svg>
