<svg width="28" height="28" viewBox="0 0 28 28" fill="none" xmlns="http://www.w3.org/2000/svg">
<path d="M28 6.19326C26.9467 6.65264 25.8328 6.95794 24.6925 7.09976C25.8942 6.38686 26.7927 5.258 27.2178 3.92701C26.0925 4.59435 24.8614 5.06429 23.5777 5.31651C22.7907 4.47613 21.7691 3.89187 20.6456 3.63965C19.5222 3.38743 18.3488 3.47891 17.2781 3.9022C16.2073 4.32549 15.2886 5.06103 14.6412 6.01325C13.9939 6.96547 13.6479 8.09035 13.6482 9.24176C13.6482 9.69676 13.6868 10.1343 13.7812 10.5508C11.4976 10.4388 9.26337 9.84612 7.22453 8.81147C5.18568 7.77681 3.38816 6.32349 1.9495 4.54651C1.21243 5.80976 0.984566 7.30645 1.3123 8.73182C1.64003 10.1572 2.49871 11.404 3.7135 12.2185C2.80483 12.1941 1.91533 11.9517 1.12 11.5115V11.5745C1.12152 12.9 1.57966 14.1845 2.41731 15.2118C3.25495 16.2391 4.42094 16.9464 5.719 17.2148C5.22793 17.3442 4.72183 17.4077 4.214 17.4038C3.84928 17.4102 3.48493 17.3774 3.12725 17.3058C3.49815 18.4451 4.21311 19.4414 5.17369 20.1575C6.13427 20.8736 7.29323 21.2743 8.491 21.3045C6.45914 22.8936 3.9532 23.7556 1.37375 23.7528C0.903 23.7528 0.4515 23.7318 0 23.674C2.62479 25.3655 5.68343 26.2602 8.806 26.25C19.369 26.25 25.144 17.5 25.144 9.91551C25.144 9.66176 25.1353 9.41676 25.123 9.17351C26.2552 8.36324 27.2301 7.3533 28 6.19326Z" fill="#03A9F4"/>
</svg>
