<svg width="12" height="11" viewBox="0 0 12 11" fill="none" xmlns="http://www.w3.org/2000/svg">
<path fill-rule="evenodd" clip-rule="evenodd" d="M8.66667 6.4C9.52564 6.40004 10.3514 6.66536 10.9719 7.14062C11.5923 7.61588 11.9594 8.2644 11.9967 8.95093L12 9.06667V9.6C12.0001 9.86911 11.8731 10.1283 11.6443 10.3256C11.4156 10.5229 11.1021 10.6438 10.7667 10.664L10.6667 10.6667H1.33333C0.996949 10.6668 0.672956 10.5651 0.426301 10.3821C0.179647 10.1992 0.0285622 9.94835 0.00333341 9.68L0 9.6V9.06667C4.96283e-05 8.37949 0.331694 7.71885 0.925773 7.22252C1.51985 6.72619 2.3305 6.43249 3.18867 6.40267L3.33333 6.4H8.66667ZM8.66667 7.46667H3.33333C2.82319 7.46664 2.33232 7.62257 1.96116 7.90255C1.59 8.18253 1.3666 8.56539 1.33667 8.9728L1.33333 9.06667V9.6H10.6667V9.06667C10.6667 8.65855 10.4718 8.26586 10.1218 7.96893C9.77184 7.672 9.29326 7.49328 8.784 7.46933L8.66667 7.46667ZM6 0C6.88406 0 7.7319 0.280952 8.35702 0.781049C8.98214 1.28115 9.33333 1.95942 9.33333 2.66667C9.33333 3.37391 8.98214 4.05219 8.35702 4.55228C7.7319 5.05238 6.88406 5.33333 6 5.33333C5.11595 5.33333 4.2681 5.05238 3.64298 4.55228C3.01786 4.05219 2.66667 3.37391 2.66667 2.66667C2.66667 1.95942 3.01786 1.28115 3.64298 0.781049C4.2681 0.280952 5.11595 0 6 0ZM6 1.06667C5.73736 1.06667 5.47728 1.10805 5.23463 1.18846C4.99198 1.26887 4.7715 1.38672 4.58579 1.5353C4.40007 1.68387 4.25275 1.86025 4.15224 2.05437C4.05173 2.24849 4 2.45655 4 2.66667C4 2.87678 4.05173 3.08484 4.15224 3.27896C4.25275 3.47308 4.40007 3.64946 4.58579 3.79804C4.7715 3.94661 4.99198 4.06447 5.23463 4.14487C5.47728 4.22528 5.73736 4.26667 6 4.26667C6.53043 4.26667 7.03914 4.0981 7.41421 3.79804C7.78929 3.49798 8 3.09101 8 2.66667C8 2.24232 7.78929 1.83535 7.41421 1.5353C7.03914 1.23524 6.53043 1.06667 6 1.06667Z" fill="#988787"/>
</svg>
