<svg width="184" height="186" viewBox="0 0 184 186" fill="none" xmlns="http://www.w3.org/2000/svg">
<g clip-path="url(#clip0_182_3080)">
<path d="M92 186C142.81 186 184 183.575 184 180.583C184 177.591 142.81 175.166 92 175.166C41.1898 175.166 0 177.591 0 180.583C0 183.575 41.1898 186 92 186Z" fill="#E6E6E6"/>
<path d="M104.294 42.9134H103.304V15.7318C103.304 11.5595 101.651 7.55804 98.7079 4.60775C95.7649 1.65746 91.7735 0 87.6115 0H30.1673C26.0053 0 22.0138 1.65746 19.0709 4.60775C16.1279 7.55804 14.4746 11.5595 14.4746 15.7318V164.851C14.4746 169.023 16.1279 173.025 19.0709 175.975C22.0138 178.925 26.0053 180.583 30.1673 180.583H87.6115C91.7735 180.583 95.7649 178.925 98.7079 175.975C101.651 173.025 103.304 169.023 103.304 164.851V62.2616H104.294V42.9134Z" fill="#3F3D56"/>
<path d="M99.9637 15.8418V164.741C99.9637 167.857 98.7289 170.846 96.5311 173.049C94.3333 175.252 91.3524 176.49 88.2442 176.49H30.5244C27.4163 176.49 24.4356 175.252 22.2378 173.049C20.0401 170.846 18.8053 167.858 18.8052 164.742V15.8418C18.8052 12.7258 20.04 9.73754 22.2378 7.53423C24.4356 5.33093 27.4165 4.09309 30.5247 4.09302H37.527C37.1829 4.94061 37.0518 5.85999 37.1453 6.77027C37.2388 7.68056 37.5541 8.55387 38.0633 9.31336C38.5725 10.0729 39.26 10.6953 40.0655 11.1258C40.871 11.5564 41.7697 11.7819 42.6825 11.7826H75.5917C76.5046 11.782 77.4033 11.5565 78.2088 11.1259C79.0143 10.6954 79.7019 10.073 80.2112 9.31347C80.7204 8.55397 81.0356 7.68065 81.1292 6.77034C81.2227 5.86003 81.0916 4.94063 80.7475 4.09302H88.2442C91.3524 4.09309 94.3333 5.33093 96.5311 7.53423C98.7289 9.73754 99.9637 12.7258 99.9637 15.8418Z" fill="white"/>
<path d="M45.4693 128.578H44.2554L44.6607 104.808H45.0659L45.4693 128.578Z" fill="#E6E6E6"/>
<path d="M46.4806 89.8424L48.44 86.8068C47.859 85.1977 47.1878 83.6227 46.4298 82.0894L45.1629 83.1155L46.1661 81.5612C45.2099 79.6747 44.4577 78.4858 44.4577 78.4858C44.4577 78.4858 40.5286 84.6933 39.2152 91.2666L41.7296 95.1622L38.9466 92.9083C38.8475 93.674 38.7965 94.4451 38.7939 95.2172C38.7939 103.002 41.33 109.312 44.4582 109.312C47.5865 109.312 50.1225 103.001 50.1225 95.2172C50.1225 92.804 49.5778 90.2793 48.8256 87.9436L46.4806 89.8424Z" fill="#CCCCCC"/>
<path d="M77.0704 128.578H75.8564L76.2617 104.808H76.667L77.0704 128.578Z" fill="#E6E6E6"/>
<path d="M78.0818 89.8424L80.0412 86.8068C79.4601 85.1977 78.789 83.6227 78.031 82.0894L76.7641 83.1155L77.7673 81.5612C76.8111 79.6747 76.0589 78.4858 76.0589 78.4858C76.0589 78.4858 72.1292 84.6938 70.8172 91.2666L73.3297 95.1616L70.5467 92.9078C70.4476 93.6734 70.3966 94.4446 70.394 95.2166C70.394 103.001 72.9301 109.311 76.0583 109.311C79.1866 109.311 81.7226 103 81.7226 95.2166C81.7226 92.8035 81.1779 90.2788 80.4257 87.9431L78.0818 89.8424Z" fill="#CCCCCC"/>
<path d="M44.5456 49.7845C50.7055 49.7845 55.699 44.7784 55.699 38.6032C55.699 32.4279 50.7055 27.4219 44.5456 27.4219C38.3857 27.4219 33.3921 32.4279 33.3921 38.6032C33.3921 44.7784 38.3857 49.7845 44.5456 49.7845Z" fill="#E6E6E6"/>
<path d="M59.994 125.117H57.4912L58.3256 76.1052H59.1596L59.994 125.117Z" fill="#E6E6E6"/>
<path d="M62.0794 45.2483L66.1195 38.9897C64.9214 35.6718 63.5375 32.4243 61.9745 29.2627L59.3621 31.3779L61.4306 28.173C59.4582 24.2828 57.9082 21.8318 57.9082 21.8318C57.9082 21.8318 49.8057 34.6318 47.0986 48.1842L52.2817 56.2167L46.5423 51.5695C46.3379 53.1482 46.2328 54.7383 46.2275 56.3302C46.2275 72.3809 51.4565 85.3924 57.9068 85.3924C64.3571 85.3924 69.5861 72.3809 69.5861 56.3302C69.5861 51.3544 68.4632 46.1487 66.9142 41.333L62.0794 45.2483Z" fill="#CCCCCC"/>
<path d="M99.9638 132.181V165.5C99.9638 172.258 94.717 177.736 88.2443 177.736H30.5245C24.0521 177.736 18.805 172.258 18.8047 165.5V135.43C28.812 123.164 43.281 115.834 58.7016 115.217C74.1222 114.599 89.0865 120.752 99.9638 132.181Z" fill="#E6E6E6"/>
<path opacity="0.2" d="M59.4474 165.048C68.8794 165.048 76.5256 157.383 76.5256 147.927C76.5256 138.472 68.8794 130.807 59.4474 130.807C50.0153 130.807 42.3691 138.472 42.3691 147.927C42.3691 157.383 50.0153 165.048 59.4474 165.048Z" fill="#F2796B"/>
<path d="M59.4472 161.713C67.0418 161.713 73.1985 155.541 73.1985 147.928C73.1985 140.314 67.0418 134.142 59.4472 134.142C51.8525 134.142 45.6958 140.314 45.6958 147.928C45.6958 155.541 51.8525 161.713 59.4472 161.713Z" fill="#F2796B"/>
<path d="M57.8435 153.822L52.9971 147.575L55.8154 145.378L58.1099 148.335L65.8614 140.132L68.4536 142.594L57.8435 153.822Z" fill="white"/>
<path d="M132.525 126.485C137.449 126.485 141.441 122.484 141.441 117.547C141.441 112.61 137.449 108.608 132.525 108.608C127.6 108.608 123.608 112.61 123.608 117.547C123.608 122.484 127.6 126.485 132.525 126.485Z" fill="#2F2E41"/>
<path d="M136.138 167.726L136.825 170.975L149.651 169.864L148.637 165.07L136.138 167.726Z" fill="#FFB8B8"/>
<path d="M135.139 177.879L132.981 167.669L136.916 166.833L138.24 173.098C138.35 173.616 138.356 174.151 138.26 174.671C138.163 175.192 137.965 175.688 137.677 176.132C137.389 176.576 137.017 176.959 136.582 177.258C136.146 177.558 135.656 177.769 135.139 177.879Z" fill="#2F2E41"/>
<path d="M128.103 167.553L126.659 170.542L114.474 166.382L116.604 161.971L128.103 167.553Z" fill="#FFB8B8"/>
<path d="M124.777 172.266L127.561 166.502L131.182 168.259L126.645 177.652C125.685 177.186 124.948 176.357 124.598 175.347C124.248 174.337 124.312 173.228 124.777 172.266Z" fill="#2F2E41"/>
<path d="M104.093 161.65C104.511 161.728 104.94 161.713 105.351 161.607C105.761 161.5 106.144 161.305 106.471 161.034C106.799 160.764 107.063 160.425 107.245 160.04C107.428 159.656 107.524 159.237 107.527 158.811L127.622 140.238L122.632 136.363L104.438 155.85C103.725 155.891 103.051 156.194 102.546 156.7C102.04 157.207 101.737 157.881 101.695 158.596C101.652 159.312 101.873 160.017 102.315 160.58C102.757 161.143 103.39 161.524 104.094 161.65L104.093 161.65Z" fill="#FFB8B8"/>
<path d="M131.406 126.889C135.071 126.889 138.042 123.91 138.042 120.236C138.042 116.562 135.071 113.583 131.406 113.583C127.741 113.583 124.77 116.562 124.77 120.236C124.77 123.91 127.741 126.889 131.406 126.889Z" fill="#FFB8B8"/>
<path d="M137.361 159.342C132.706 159.342 127.1 158.359 123.641 154.337L123.563 154.247L123.645 154.158C123.672 154.129 126.215 151.214 123.675 146.016L120.181 147.093L116.704 142.491L118.63 136.698L126.513 130.332C127.643 129.425 129.018 128.878 130.461 128.763C133.072 128.51 135.616 127.784 137.968 126.62C139.044 126.096 140.23 125.836 141.426 125.862L141.581 125.866C141.945 125.876 142.303 125.96 142.634 126.114C142.964 126.267 143.26 126.485 143.504 126.757C143.747 127.028 143.933 127.346 144.051 127.691C144.168 128.037 144.214 128.403 144.186 128.766C143.652 135.709 142.708 152.479 145.481 158.253L145.553 158.402L145.393 158.443C142.757 159.037 140.064 159.339 137.362 159.342L137.361 159.342Z" fill="#F2796B"/>
<path d="M124.554 154.249C124.554 154.249 106.991 152.624 105.1 157.77C103.209 162.917 105.37 165.355 108.613 166.438C111.855 167.522 119.69 168.876 119.69 168.876L123.203 164.542L132.389 165.084C132.389 165.084 142.626 171.035 145.456 177.401C146.063 178.779 147.031 179.965 148.258 180.835C149.484 181.705 150.923 182.225 152.421 182.341C154.69 182.499 156.707 181.64 156.707 178.085C156.707 169.959 145.359 158.312 145.359 158.312L124.554 154.249Z" fill="#2F2E41"/>
<path d="M111.18 162.24C111.18 162.24 115.773 160.885 123.068 164.407L111.18 162.24Z" fill="#2F2E41"/>
<path d="M124.786 115.993C127.377 117.579 130.299 118.545 133.324 118.814L132.424 117.733C133.079 117.975 133.768 118.113 134.467 118.139C134.816 118.149 135.163 118.077 135.48 117.928C135.797 117.78 136.074 117.559 136.29 117.283C136.467 116.997 136.572 116.672 136.596 116.337C136.62 116.001 136.563 115.665 136.43 115.356C136.156 114.74 135.729 114.205 135.19 113.802C134.235 113.044 133.107 112.535 131.909 112.321C130.71 112.106 129.476 112.192 128.319 112.571C127.524 112.808 126.812 113.266 126.265 113.89C125.996 114.205 125.81 114.581 125.722 114.986C125.634 115.391 125.648 115.811 125.762 116.209" fill="#2F2E41"/>
<path d="M132.477 110.676C133.656 107.931 135.421 105.479 137.648 103.492C139.078 102.219 140.748 101.124 142.632 100.793C144.516 100.463 146.639 101.029 147.795 102.557C148.741 103.806 148.917 105.48 148.813 107.045C148.709 108.609 148.36 110.16 148.393 111.726C148.428 113.326 148.86 114.892 149.65 116.281C150.441 117.671 151.566 118.841 152.922 119.684C154.278 120.528 155.823 121.019 157.416 121.112C159.009 121.205 160.601 120.898 162.045 120.218C160.418 121.12 159.151 122.548 157.641 123.633C156.132 124.719 154.139 125.464 152.423 124.747C150.608 123.988 149.775 121.924 149.125 120.063L146.226 111.764C145.733 110.353 145.215 108.9 144.21 107.797C143.204 106.694 141.571 106.021 140.187 106.576C139.137 106.996 138.454 108 137.855 108.959C137.256 109.919 136.624 110.942 135.612 111.446C134.601 111.949 133.1 111.639 132.769 110.556" fill="#2F2E41"/>
<path d="M134.754 159.365C134.639 159.365 134.525 159.359 134.411 159.347C133.656 159.261 132.962 158.889 132.472 158.307C131.982 157.725 131.733 156.977 131.776 156.216C131.82 155.455 132.152 154.74 132.705 154.218C133.258 153.695 133.989 153.405 134.749 153.406C134.882 153.407 135.014 153.417 135.145 153.436L144.218 143.754L143.271 140.589L148.026 138.451L149.359 141.718C149.806 142.824 149.885 144.046 149.585 145.201C149.285 146.356 148.621 147.383 147.692 148.13L137.705 156.094C137.716 156.191 137.721 156.288 137.721 156.386C137.721 156.805 137.633 157.22 137.462 157.602C137.292 157.985 137.043 158.327 136.731 158.607C136.189 159.098 135.484 159.368 134.754 159.365Z" fill="#FFB8B8"/>
<path d="M141.846 127.163C142.161 127.022 142.5 126.947 142.845 126.942C143.189 126.937 143.53 127.001 143.849 127.132C144.168 127.262 144.457 127.456 144.699 127.701C144.941 127.947 145.131 128.238 145.258 128.559L149.952 140.435L142.657 145.311L141.846 127.163Z" fill="#F2796B"/>
</g>
<defs>
<clipPath id="clip0_182_3080">
<rect width="184" height="186" fill="white"/>
</clipPath>
</defs>
</svg>
